# xmcd
#
# Track frame offsets:
#	150
#	12988
#	24161
#	34199
#	43928
#	54650
#	69902
#	81893
#	94325
#	104702
#	114761
#	125027
#	135176
#	145273
#	156376
#	165559
#	175660
#	188840
#	202541
#	215264
#	229226
#	239283
#	250084
#	263959
#	275317
#	287021
#
# Disc length: 3944 seconds
#
# Revision: 1
# Processed by: cddbd v1.5.2PL0 Copyright (c) Steve Scherf et al.
# Submitted via: audiograbber 1.83.01
#
DISCID=670f661a
DTITLE=Patsy Cline - Sweet Dreams - The Complete Decca Masters (1960  to 1963) 
DTITLE=CD1
DYEAR=2010
DGENRE=Country
TTITLE0=I Fall To Pieces
TTITLE1=Shoes
TTITLE2=Lovin' In Vain
TTITLE3=True Love
TTITLE4=San Antonio Rose
TTITLE5=The Wayward Wind
TTITLE6=A Poor Man's Roses (Or A Rich Man's Gold)
TTITLE7=Crazy
TTITLE8=Who Can I Count On
TTITLE9=Seven Lonely Days
TTITLE10=I Love You So Much It Hurts
TTITLE11=Foolin' Around
TTITLE12=Have You Ever Been Lonely (Have You Ever Been Blue)
TTITLE13=South Of The Border (Down Mexico Way)
TTITLE14=Walkin' After Midnight
TTITLE15=Strange
TTITLE16=You're Stronger Than Me
TTITLE17=She's Got You
TTITLE18=You Made Me Love You (I Didn't Want To Do It)
TTITLE19=You Belong To Me
TTITLE20=Heartaches
TTITLE21=Your Cheatin' Heart
TTITLE22=That's My Desire
TTITLE23=Half As Much
TTITLE24=Lonely Street
TTITLE25=Anytime
EXTD=
EXTT0=
EXTT1=
EXTT2=
EXTT3=
EXTT4=
EXTT5=
EXTT6=
EXTT7=
EXTT8=
EXTT9=
EXTT10=
EXTT11=
EXTT12=
EXTT13=
EXTT14=
EXTT15=
EXTT16=
EXTT17=
EXTT18=
EXTT19=
EXTT20=
EXTT21=
EXTT22=
EXTT23=
EXTT24=
EXTT25=
PLAYORDER=
